<svg width="20" height="16" viewBox="0 0 20 16" fill="none" xmlns="http://www.w3.org/2000/svg">
<path d="M2.69815 12.3638C3.28706 12.3638 3.76446 11.8864 3.76446 11.2975C3.76446 10.7086 3.28706 10.2312 2.69815 10.2312C2.10924 10.2312 1.63184 10.7086 1.63184 11.2975C1.63184 11.8864 2.10924 12.3638 2.69815 12.3638Z" fill="url(#paint0_radial_354_108)"/>
<path d="M17.3095 12.3721C17.8984 12.3721 18.3758 11.8947 18.3758 11.3058C18.3758 10.7169 17.8984 10.2395 17.3095 10.2395C16.7206 10.2395 16.2432 10.7169 16.2432 11.3058C16.2432 11.8947 16.7206 12.3721 17.3095 12.3721Z" fill="url(#paint1_radial_354_108)"/>
<path d="M17.3095 12.3721C17.8984 12.3721 18.3758 11.8947 18.3758 11.3058C18.3758 10.7169 17.8984 10.2395 17.3095 10.2395C16.7206 10.2395 16.2432 10.7169 16.2432 11.3058C16.2432 11.8947 16.7206 12.3721 17.3095 12.3721Z" fill="url(#paint2_radial_354_108)"/>
<path d="M5.19273 4.30704C4.78023 4.92579 4.47979 5.76797 4.37598 6.09041L5.98748 7.25022L7.2181 5.69235C6.99864 5.35908 6.76937 5.03238 6.5306 4.71266C6.33625 4.46955 6.12974 4.23642 5.91185 4.01416L5.19273 4.30704V4.30704Z" fill="url(#paint3_radial_354_108)"/>
<path d="M5.19273 4.30704C4.78023 4.92579 4.47979 5.76797 4.37598 6.09041L5.98748 7.25022L7.2181 5.69235C6.99864 5.35908 6.76937 5.03238 6.5306 4.71266C6.33625 4.46955 6.12974 4.23642 5.91185 4.01416L5.19273 4.30704V4.30704Z" fill="url(#paint4_radial_354_108)"/>
<path d="M14.8066 4.30704C15.2191 4.92579 15.5196 5.76797 15.6234 6.09041L14.0119 7.25022L12.7812 5.69235C12.927 5.46891 13.2714 4.97047 13.4688 4.71266C13.6667 4.45485 13.9651 4.13929 14.0875 4.01416L14.8066 4.30704V4.30704Z" fill="url(#paint5_radial_354_108)"/>
<path d="M14.8066 4.30704C15.2191 4.92579 15.5196 5.76797 15.6234 6.09041L14.0119 7.25022L12.7812 5.69235C12.927 5.46891 13.2714 4.97047 13.4688 4.71266C13.6667 4.45485 13.9651 4.13929 14.0875 4.01416L14.8066 4.30704V4.30704Z" fill="url(#paint6_radial_354_108)"/>
<path d="M14.8066 4.30704C15.2191 4.92579 15.5196 5.76797 15.6234 6.09041L14.0119 7.25022L12.7812 5.69235C12.927 5.46891 13.2714 4.97047 13.4688 4.71266C13.6667 4.45485 13.9651 4.13929 14.0875 4.01416L14.8066 4.30704V4.30704Z" fill="url(#paint7_radial_354_108)"/>
<g filter="url(#filter0_ii_354_108)">
<path d="M1.14815 4.35509L3.28352 14.7769C3.33454 15.0252 3.46977 15.2483 3.66632 15.4084C3.86288 15.5685 4.1087 15.6558 4.36221 15.6555H15.6372C15.8908 15.6556 16.1366 15.568 16.333 15.4077C16.5295 15.2473 16.6645 15.024 16.7152 14.7755L18.8506 4.3544L18.1686 4.02165C17.1483 4.76277 15.0116 6.28284 14.4602 6.61559C14.0202 6.88096 13.616 6.44852 13.5321 6.32546C12.7641 5.19796 11.592 3.55621 11.1533 2.9794C10.7051 2.38815 10.1977 2.09665 9.99902 2.0719C9.80034 2.09665 9.29296 2.38815 8.84402 2.9794C8.40609 3.55621 7.23459 5.19796 6.46596 6.32546C6.38209 6.44852 5.97784 6.88165 5.53784 6.61559C4.98646 6.28284 2.84971 4.76277 1.82946 4.02165L1.14746 4.3544L1.14815 4.35509Z" fill="url(#paint8_linear_354_108)"/>
<path d="M1.14815 4.35509L3.28352 14.7769C3.33454 15.0252 3.46977 15.2483 3.66632 15.4084C3.86288 15.5685 4.1087 15.6558 4.36221 15.6555H15.6372C15.8908 15.6556 16.1366 15.568 16.333 15.4077C16.5295 15.2473 16.6645 15.024 16.7152 14.7755L18.8506 4.3544L18.1686 4.02165C17.1483 4.76277 15.0116 6.28284 14.4602 6.61559C14.0202 6.88096 13.616 6.44852 13.5321 6.32546C12.7641 5.19796 11.592 3.55621 11.1533 2.9794C10.7051 2.38815 10.1977 2.09665 9.99902 2.0719C9.80034 2.09665 9.29296 2.38815 8.84402 2.9794C8.40609 3.55621 7.23459 5.19796 6.46596 6.32546C6.38209 6.44852 5.97784 6.88165 5.53784 6.61559C4.98646 6.28284 2.84971 4.76277 1.82946 4.02165L1.14746 4.3544L1.14815 4.35509Z" fill="url(#paint9_radial_354_108)"/>
</g>
<path d="M1.14815 4.35509L3.28352 14.7769C3.33454 15.0252 3.46977 15.2483 3.66632 15.4084C3.86288 15.5685 4.1087 15.6558 4.36221 15.6555H15.6372C15.8908 15.6556 16.1366 15.568 16.333 15.4077C16.5295 15.2473 16.6645 15.024 16.7152 14.7755L18.8506 4.3544L18.1686 4.02165C17.1483 4.76277 15.0116 6.28284 14.4602 6.61559C14.0202 6.88096 13.616 6.44852 13.5321 6.32546C12.7641 5.19796 11.592 3.55621 11.1533 2.9794C10.7051 2.38815 10.1977 2.09665 9.99902 2.0719C9.80034 2.09665 9.29296 2.38815 8.84402 2.9794C8.40609 3.55621 7.23459 5.19796 6.46596 6.32546C6.38209 6.44852 5.97784 6.88165 5.53784 6.61559C4.98646 6.28284 2.84971 4.76277 1.82946 4.02165L1.14746 4.3544L1.14815 4.35509Z" fill="url(#paint10_linear_354_108)"/>
<path d="M1.14815 4.35509L3.28352 14.7769C3.33454 15.0252 3.46977 15.2483 3.66632 15.4084C3.86288 15.5685 4.1087 15.6558 4.36221 15.6555H15.6372C15.8908 15.6556 16.1366 15.568 16.333 15.4077C16.5295 15.2473 16.6645 15.024 16.7152 14.7755L18.8506 4.3544L18.1686 4.02165C17.1483 4.76277 15.0116 6.28284 14.4602 6.61559C14.0202 6.88096 13.616 6.44852 13.5321 6.32546C12.7641 5.19796 11.592 3.55621 11.1533 2.9794C10.7051 2.38815 10.1977 2.09665 9.99902 2.0719C9.80034 2.09665 9.29296 2.38815 8.84402 2.9794C8.40609 3.55621 7.23459 5.19796 6.46596 6.32546C6.38209 6.44852 5.97784 6.88165 5.53784 6.61559C4.98646 6.28284 2.84971 4.76277 1.82946 4.02165L1.14746 4.3544L1.14815 4.35509Z" fill="url(#paint11_linear_354_108)"/>
<path d="M1.14815 4.35509L3.28352 14.7769C3.33454 15.0252 3.46977 15.2483 3.66632 15.4084C3.86288 15.5685 4.1087 15.6558 4.36221 15.6555H15.6372C15.8908 15.6556 16.1366 15.568 16.333 15.4077C16.5295 15.2473 16.6645 15.024 16.7152 14.7755L18.8506 4.3544L18.1686 4.02165C17.1483 4.76277 15.0116 6.28284 14.4602 6.61559C14.0202 6.88096 13.616 6.44852 13.5321 6.32546C12.7641 5.19796 11.592 3.55621 11.1533 2.9794C10.7051 2.38815 10.1977 2.09665 9.99902 2.0719C9.80034 2.09665 9.29296 2.38815 8.84402 2.9794C8.40609 3.55621 7.23459 5.19796 6.46596 6.32546C6.38209 6.44852 5.97784 6.88165 5.53784 6.61559C4.98646 6.28284 2.84971 4.76277 1.82946 4.02165L1.14746 4.3544L1.14815 4.35509Z" fill="url(#paint12_linear_354_108)"/>
<path d="M1.14815 4.35509L3.28352 14.7769C3.33454 15.0252 3.46977 15.2483 3.66632 15.4084C3.86288 15.5685 4.1087 15.6558 4.36221 15.6555H15.6372C15.8908 15.6556 16.1366 15.568 16.333 15.4077C16.5295 15.2473 16.6645 15.024 16.7152 14.7755L18.8506 4.3544L18.1686 4.02165C17.1483 4.76277 15.0116 6.28284 14.4602 6.61559C14.0202 6.88096 13.616 6.44852 13.5321 6.32546C12.7641 5.19796 11.592 3.55621 11.1533 2.9794C10.7051 2.38815 10.1977 2.09665 9.99902 2.0719C9.80034 2.09665 9.29296 2.38815 8.84402 2.9794C8.40609 3.55621 7.23459 5.19796 6.46596 6.32546C6.38209 6.44852 5.97784 6.88165 5.53784 6.61559C4.98646 6.28284 2.84971 4.76277 1.82946 4.02165L1.14746 4.3544L1.14815 4.35509Z" fill="url(#paint13_radial_354_108)"/>
<path d="M1.14815 4.35509L3.28352 14.7769C3.33454 15.0252 3.46977 15.2483 3.66632 15.4084C3.86288 15.5685 4.1087 15.6558 4.36221 15.6555H15.6372C15.8908 15.6556 16.1366 15.568 16.333 15.4077C16.5295 15.2473 16.6645 15.024 16.7152 14.7755L18.8506 4.3544L18.1686 4.02165C17.1483 4.76277 15.0116 6.28284 14.4602 6.61559C14.0202 6.88096 13.616 6.44852 13.5321 6.32546C12.7641 5.19796 11.592 3.55621 11.1533 2.9794C10.7051 2.38815 10.1977 2.09665 9.99902 2.0719C9.80034 2.09665 9.29296 2.38815 8.84402 2.9794C8.40609 3.55621 7.23459 5.19796 6.46596 6.32546C6.38209 6.44852 5.97784 6.88165 5.53784 6.61559C4.98646 6.28284 2.84971 4.76277 1.82946 4.02165L1.14746 4.3544L1.14815 4.35509Z" fill="url(#paint14_radial_354_108)"/>
<path d="M1.14815 4.35509L3.28352 14.7769C3.33454 15.0252 3.46977 15.2483 3.66632 15.4084C3.86288 15.5685 4.1087 15.6558 4.36221 15.6555H15.6372C15.8908 15.6556 16.1366 15.568 16.333 15.4077C16.5295 15.2473 16.6645 15.024 16.7152 14.7755L18.8506 4.3544L18.1686 4.02165C17.1483 4.76277 15.0116 6.28284 14.4602 6.61559C14.0202 6.88096 13.616 6.44852 13.5321 6.32546C12.7641 5.19796 11.592 3.55621 11.1533 2.9794C10.7051 2.38815 10.1977 2.09665 9.99902 2.0719C9.80034 2.09665 9.29296 2.38815 8.84402 2.9794C8.40609 3.55621 7.23459 5.19796 6.46596 6.32546C6.38209 6.44852 5.97784 6.88165 5.53784 6.61559C4.98646 6.28284 2.84971 4.76277 1.82946 4.02165L1.14746 4.3544L1.14815 4.35509Z" fill="url(#paint15_radial_354_108)"/>
<g filter="url(#filter1_ii_354_108)">
<path d="M15.3481 11.6357C15.1652 12.1954 14.5795 12.4759 14.0199 12.2937C13.5977 12.1218 13.4156 11.6399 13.5977 11.0802C13.7799 10.5199 14.354 10.1989 14.7019 10.3116C15.2615 10.4938 15.5296 11.0754 15.3481 11.6357V11.6357Z" fill="url(#paint16_radial_354_108)"/>
<path d="M15.3481 11.6357C15.1652 12.1954 14.5795 12.4759 14.0199 12.2937C13.5977 12.1218 13.4156 11.6399 13.5977 11.0802C13.7799 10.5199 14.354 10.1989 14.7019 10.3116C15.2615 10.4938 15.5296 11.0754 15.3481 11.6357V11.6357Z" fill="url(#paint17_radial_354_108)"/>
</g>
<g filter="url(#filter2_ii_354_108)">
<path d="M4.70413 11.6357C4.88631 12.1954 5.47206 12.4759 6.03238 12.2937C6.45381 12.1218 6.636 11.6399 6.45381 11.0802C6.27163 10.5199 5.69756 10.1989 5.35038 10.3116C4.79006 10.4938 4.52194 11.0754 4.70413 11.6357Z" fill="url(#paint18_radial_354_108)"/>
<path d="M4.70413 11.6357C4.88631 12.1954 5.47206 12.4759 6.03238 12.2937C6.45381 12.1218 6.636 11.6399 6.45381 11.0802C6.27163 10.5199 5.69756 10.1989 5.35038 10.3116C4.79006 10.4938 4.52194 11.0754 4.70413 11.6357Z" fill="url(#paint19_radial_354_108)"/>
</g>
<path d="M2.38362 4.19842C2.38362 4.45196 2.2829 4.69512 2.10362 4.87439C1.92434 5.05367 1.68119 5.15439 1.42765 5.15439C1.17411 5.15439 0.930955 5.05367 0.751676 4.87439C0.572398 4.69512 0.47168 4.45196 0.47168 4.19842C0.47168 3.94498 0.572361 3.70191 0.751576 3.52269C0.93079 3.34348 1.17386 3.2428 1.4273 3.2428C1.68075 3.2428 1.92382 3.34348 2.10303 3.52269C2.28225 3.70191 2.38293 3.94498 2.38293 4.19842H2.38362Z" fill="url(#paint20_radial_354_108)"/>
<path d="M2.38362 4.19842C2.38362 4.45196 2.2829 4.69512 2.10362 4.87439C1.92434 5.05367 1.68119 5.15439 1.42765 5.15439C1.17411 5.15439 0.930955 5.05367 0.751676 4.87439C0.572398 4.69512 0.47168 4.45196 0.47168 4.19842C0.47168 3.94498 0.572361 3.70191 0.751576 3.52269C0.93079 3.34348 1.17386 3.2428 1.4273 3.2428C1.68075 3.2428 1.92382 3.34348 2.10303 3.52269C2.28225 3.70191 2.38293 3.94498 2.38293 4.19842H2.38362Z" fill="url(#paint21_radial_354_108)"/>
<path d="M2.38362 4.19842C2.38362 4.45196 2.2829 4.69512 2.10362 4.87439C1.92434 5.05367 1.68119 5.15439 1.42765 5.15439C1.17411 5.15439 0.930955 5.05367 0.751676 4.87439C0.572398 4.69512 0.47168 4.45196 0.47168 4.19842C0.47168 3.94498 0.572361 3.70191 0.751576 3.52269C0.93079 3.34348 1.17386 3.2428 1.4273 3.2428C1.68075 3.2428 1.92382 3.34348 2.10303 3.52269C2.28225 3.70191 2.38293 3.94498 2.38293 4.19842H2.38362Z" fill="url(#paint22_radial_354_108)"/>
<path d="M2.38362 4.19842C2.38362 4.45196 2.2829 4.69512 2.10362 4.87439C1.92434 5.05367 1.68119 5.15439 1.42765 5.15439C1.17411 5.15439 0.930955 5.05367 0.751676 4.87439C0.572398 4.69512 0.47168 4.45196 0.47168 4.19842C0.47168 3.94498 0.572361 3.70191 0.751576 3.52269C0.93079 3.34348 1.17386 3.2428 1.4273 3.2428C1.68075 3.2428 1.92382 3.34348 2.10303 3.52269C2.28225 3.70191 2.38293 3.94498 2.38293 4.19842H2.38362Z" fill="url(#paint23_radial_354_108)"/>
<path d="M6.06755 4.3737C6.25008 4.26678 6.39197 4.10231 6.47099 3.90608C6.55 3.70985 6.56168 3.49295 6.50418 3.28937C6.44668 3.0858 6.32325 2.90706 6.15325 2.78116C5.98325 2.65527 5.77628 2.58934 5.56479 2.59371C5.35329 2.59808 5.14923 2.6725 4.98457 2.80531C4.81992 2.93812 4.70398 3.12181 4.65494 3.32759C4.6059 3.53337 4.62652 3.7496 4.71358 3.9424C4.80063 4.13519 4.9492 4.29366 5.13599 4.39295C5.22803 4.3575 5.32905 4.35268 5.42405 4.3792C5.57118 4.42182 5.81318 4.47545 6.06824 4.3737H6.06755Z" fill="url(#paint24_radial_354_108)"/>
<path d="M6.06755 4.3737C6.25008 4.26678 6.39197 4.10231 6.47099 3.90608C6.55 3.70985 6.56168 3.49295 6.50418 3.28937C6.44668 3.0858 6.32325 2.90706 6.15325 2.78116C5.98325 2.65527 5.77628 2.58934 5.56479 2.59371C5.35329 2.59808 5.14923 2.6725 4.98457 2.80531C4.81992 2.93812 4.70398 3.12181 4.65494 3.32759C4.6059 3.53337 4.62652 3.7496 4.71358 3.9424C4.80063 4.13519 4.9492 4.29366 5.13599 4.39295C5.22803 4.3575 5.32905 4.35268 5.42405 4.3792C5.57118 4.42182 5.81318 4.47545 6.06824 4.3737H6.06755Z" fill="url(#paint25_radial_354_108)"/>
<path d="M6.06755 4.3737C6.25008 4.26678 6.39197 4.10231 6.47099 3.90608C6.55 3.70985 6.56168 3.49295 6.50418 3.28937C6.44668 3.0858 6.32325 2.90706 6.15325 2.78116C5.98325 2.65527 5.77628 2.58934 5.56479 2.59371C5.35329 2.59808 5.14923 2.6725 4.98457 2.80531C4.81992 2.93812 4.70398 3.12181 4.65494 3.32759C4.6059 3.53337 4.62652 3.7496 4.71358 3.9424C4.80063 4.13519 4.9492 4.29366 5.13599 4.39295C5.22803 4.3575 5.32905 4.35268 5.42405 4.3792C5.57118 4.42182 5.81318 4.47545 6.06824 4.3737H6.06755Z" fill="url(#paint26_radial_354_108)"/>
<path d="M6.06755 4.3737C6.25008 4.26678 6.39197 4.10231 6.47099 3.90608C6.55 3.70985 6.56168 3.49295 6.50418 3.28937C6.44668 3.0858 6.32325 2.90706 6.15325 2.78116C5.98325 2.65527 5.77628 2.58934 5.56479 2.59371C5.35329 2.59808 5.14923 2.6725 4.98457 2.80531C4.81992 2.93812 4.70398 3.12181 4.65494 3.32759C4.6059 3.53337 4.62652 3.7496 4.71358 3.9424C4.80063 4.13519 4.9492 4.29366 5.13599 4.39295C5.22803 4.3575 5.32905 4.35268 5.42405 4.3792C5.57118 4.42182 5.81318 4.47545 6.06824 4.3737H6.06755Z" fill="url(#paint27_radial_354_108)"/>
<g filter="url(#filter3_i_354_108)">
<path d="M13.9326 4.3737C13.75 4.26678 13.6081 4.10231 13.5291 3.90608C13.4501 3.70985 13.4384 3.49295 13.4959 3.28937C13.5534 3.0858 13.6769 2.90706 13.8469 2.78116C14.0169 2.65527 14.2238 2.58934 14.4353 2.59371C14.6468 2.59808 14.8509 2.6725 15.0155 2.80531C15.1802 2.93812 15.2961 3.12181 15.3452 3.32759C15.3942 3.53337 15.3736 3.7496 15.2865 3.9424C15.1995 4.13519 15.0509 4.29366 14.8641 4.39295C14.7721 4.3575 14.6711 4.35268 14.5761 4.3792C14.4289 4.42182 14.1869 4.47545 13.9319 4.3737H13.9326Z" fill="url(#paint28_radial_354_108)"/>
<path d="M13.9326 4.3737C13.75 4.26678 13.6081 4.10231 13.5291 3.90608C13.4501 3.70985 13.4384 3.49295 13.4959 3.28937C13.5534 3.0858 13.6769 2.90706 13.8469 2.78116C14.0169 2.65527 14.2238 2.58934 14.4353 2.59371C14.6468 2.59808 14.8509 2.6725 15.0155 2.80531C15.1802 2.93812 15.2961 3.12181 15.3452 3.32759C15.3942 3.53337 15.3736 3.7496 15.2865 3.9424C15.1995 4.13519 15.0509 4.29366 14.8641 4.39295C14.7721 4.3575 14.6711 4.35268 14.5761 4.3792C14.4289 4.42182 14.1869 4.47545 13.9319 4.3737H13.9326Z" fill="url(#paint29_radial_354_108)"/>
</g>
<g filter="url(#filter4_ii_354_108)">
<path d="M10.0259 13.0458C10.9629 13.0458 11.7226 12.2862 11.7226 11.3491C11.7226 10.412 10.9629 9.65234 10.0259 9.65234C9.08876 9.65234 8.3291 10.412 8.3291 11.3491C8.3291 12.2862 9.08876 13.0458 10.0259 13.0458Z" fill="url(#paint30_radial_354_108)"/>
</g>
<g filter="url(#filter5_f_354_108)">
<path d="M10.1445 2.43156C10.2635 2.41781 10.566 2.47899 10.832 2.83993C11.0988 3.20087 12.7199 5.51087 13.4968 6.62118C13.6473 6.85356 14.0922 7.22068 14.6676 6.82537C15.2437 6.43006 17.0952 5.08943 17.7937 4.62399" stroke="url(#paint31_linear_354_108)" stroke-width="0.15"/>
<path d="M10.1445 2.43156C10.2635 2.41781 10.566 2.47899 10.832 2.83993C11.0988 3.20087 12.7199 5.51087 13.4968 6.62118C13.6473 6.85356 14.0922 7.22068 14.6676 6.82537C15.2437 6.43006 17.0952 5.08943 17.7937 4.62399" stroke="url(#paint32_radial_354_108)" stroke-width="0.15"/>
</g>
<path d="M9.99698 2.49408C10.6808 2.49408 11.2352 1.93972 11.2352 1.25589C11.2352 0.572056 10.6808 0.0177002 9.99698 0.0177002C9.31314 0.0177002 8.75879 0.572056 8.75879 1.25589C8.75879 1.93972 9.31314 2.49408 9.99698 2.49408Z" fill="url(#paint33_radial_354_108)"/>
<path d="M9.99698 2.49408C10.6808 2.49408 11.2352 1.93972 11.2352 1.25589C11.2352 0.572056 10.6808 0.0177002 9.99698 0.0177002C9.31314 0.0177002 8.75879 0.572056 8.75879 1.25589C8.75879 1.93972 9.31314 2.49408 9.99698 2.49408Z" fill="url(#paint34_radial_354_108)"/>
<path d="M9.99698 2.49408C10.6808 2.49408 11.2352 1.93972 11.2352 1.25589C11.2352 0.572056 10.6808 0.0177002 9.99698 0.0177002C9.31314 0.0177002 8.75879 0.572056 8.75879 1.25589C8.75879 1.93972 9.31314 2.49408 9.99698 2.49408Z" fill="url(#paint35_radial_354_108)"/>
<path d="M9.99698 2.49408C10.6808 2.49408 11.2352 1.93972 11.2352 1.25589C11.2352 0.572056 10.6808 0.0177002 9.99698 0.0177002C9.31314 0.0177002 8.75879 0.572056 8.75879 1.25589C8.75879 1.93972 9.31314 2.49408 9.99698 2.49408Z" fill="url(#paint36_radial_354_108)"/>
<path d="M19.5711 4.19842C19.5711 4.45196 19.4704 4.69512 19.2911 4.87439C19.1118 5.05367 18.8687 5.15439 18.6151 5.15439C18.3616 5.15439 18.1185 5.05367 17.9392 4.87439C17.7599 4.69512 17.6592 4.45196 17.6592 4.19842C17.6592 3.94498 17.7599 3.70191 17.9391 3.52269C18.1183 3.34348 18.3614 3.2428 18.6148 3.2428C18.8683 3.2428 19.1113 3.34348 19.2905 3.52269C19.4697 3.70191 19.5704 3.94498 19.5704 4.19842H19.5711Z" fill="url(#paint37_radial_354_108)"/>
<path d="M19.5711 4.19842C19.5711 4.45196 19.4704 4.69512 19.2911 4.87439C19.1118 5.05367 18.8687 5.15439 18.6151 5.15439C18.3616 5.15439 18.1185 5.05367 17.9392 4.87439C17.7599 4.69512 17.6592 4.45196 17.6592 4.19842C17.6592 3.94498 17.7599 3.70191 17.9391 3.52269C18.1183 3.34348 18.3614 3.2428 18.6148 3.2428C18.8683 3.2428 19.1113 3.34348 19.2905 3.52269C19.4697 3.70191 19.5704 3.94498 19.5704 4.19842H19.5711Z" fill="url(#paint38_radial_354_108)"/>
<path d="M19.5711 4.19842C19.5711 4.45196 19.4704 4.69512 19.2911 4.87439C19.1118 5.05367 18.8687 5.15439 18.6151 5.15439C18.3616 5.15439 18.1185 5.05367 17.9392 4.87439C17.7599 4.69512 17.6592 4.45196 17.6592 4.19842C17.6592 3.94498 17.7599 3.70191 17.9391 3.52269C18.1183 3.34348 18.3614 3.2428 18.6148 3.2428C18.8683 3.2428 19.1113 3.34348 19.2905 3.52269C19.4697 3.70191 19.5704 3.94498 19.5704 4.19842H19.5711Z" fill="url(#paint39_radial_354_108)"/>
<path d="M19.5711 4.19842C19.5711 4.45196 19.4704 4.69512 19.2911 4.87439C19.1118 5.05367 18.8687 5.15439 18.6151 5.15439C18.3616 5.15439 18.1185 5.05367 17.9392 4.87439C17.7599 4.69512 17.6592 4.45196 17.6592 4.19842C17.6592 3.94498 17.7599 3.70191 17.9391 3.52269C18.1183 3.34348 18.3614 3.2428 18.6148 3.2428C18.8683 3.2428 19.1113 3.34348 19.2905 3.52269C19.4697 3.70191 19.5704 3.94498 19.5704 4.19842H19.5711Z" fill="url(#paint40_radial_354_108)"/>
<defs>
<filter id="filter0_ii_354_108" x="0.747461" y="1.9719" width="18.5031" height="13.6836" filterUnits="userSpaceOnUse" color-interpolation-filters="sRGB">
<feFlood flood-opacity="0" result="BackgroundImageFix"/>
<feBlend mode="normal" in="SourceGraphic" in2="BackgroundImageFix" result="shape"/>
<feColorMatrix in="SourceAlpha" type="matrix" values="0 0 0 0 0 0 0 0 0 0 0 0 0 0 0 0 0 0 127 0" result="hardAlpha"/>
<feOffset dx="0.4" dy="-0.1"/>
<feGaussianBlur stdDeviation="0.25"/>
<feComposite in2="hardAlpha" operator="arithmetic" k2="-1" k3="1"/>
<feColorMatrix type="matrix" values="0 0 0 0 0.803922 0 0 0 0 0.580392 0 0 0 0 0.262745 0 0 0 1 0"/>
<feBlend mode="normal" in2="shape" result="effect1_innerShadow_354_108"/>
<feColorMatrix in="SourceAlpha" type="matrix" values="0 0 0 0 0 0 0 0 0 0 0 0 0 0 0 0 0 0 127 0" result="hardAlpha"/>
<feOffset dx="-0.4" dy="-0.1"/>
<feGaussianBlur stdDeviation="0.25"/>
<feComposite in2="hardAlpha" operator="arithmetic" k2="-1" k3="1"/>
<feColorMatrix type="matrix" values="0 0 0 0 0.894118 0 0 0 0 0.686275 0 0 0 0 0.301961 0 0 0 1 0"/>
<feBlend mode="normal" in2="effect1_innerShadow_354_108" result="effect2_innerShadow_354_108"/>
</filter>
<filter id="filter1_ii_354_108" x="13.2773" y="10.1392" width="2.27695" height="2.45981" filterUnits="userSpaceOnUse" color-interpolation-filters="sRGB">
<feFlood flood-opacity="0" result="BackgroundImageFix"/>
<feBlend mode="normal" in="SourceGraphic" in2="BackgroundImageFix" result="shape"/>
<feColorMatrix in="SourceAlpha" type="matrix" values="0 0 0 0 0 0 0 0 0 0 0 0 0 0 0 0 0 0 127 0" result="hardAlpha"/>
<feOffset dx="-0.25" dy="0.25"/>
<feGaussianBlur stdDeviation="0.375"/>
<feComposite in2="hardAlpha" operator="arithmetic" k2="-1" k3="1"/>
<feColorMatrix type="matrix" values="0 0 0 0 1 0 0 0 0 0.54902 0 0 0 0 0.305882 0 0 0 1 0"/>
<feBlend mode="normal" in2="shape" result="effect1_innerShadow_354_108"/>
<feColorMatrix in="SourceAlpha" type="matrix" values="0 0 0 0 0 0 0 0 0 0 0 0 0 0 0 0 0 0 127 0" result="hardAlpha"/>
<feOffset dx="0.15" dy="-0.15"/>
<feGaussianBlur stdDeviation="0.25"/>
<feComposite in2="hardAlpha" operator="arithmetic" k2="-1" k3="1"/>
<feColorMatrix type="matrix" values="0 0 0 0 0.984314 0 0 0 0 0.219608 0 0 0 0 0.254902 0 0 0 1 0"/>
<feBlend mode="normal" in2="effect1_innerShadow_354_108" result="effect2_innerShadow_354_108"/>
</filter>
<filter id="filter2_ii_354_108" x="4.39746" y="10.2892" width="2.42695" height="2.35981" filterUnits="userSpaceOnUse" color-interpolation-filters="sRGB">
<feFlood flood-opacity="0" result="BackgroundImageFix"/>
<feBlend mode="normal" in="SourceGraphic" in2="BackgroundImageFix" result="shape"/>
<feColorMatrix in="SourceAlpha" type="matrix" values="0 0 0 0 0 0 0 0 0 0 0 0 0 0 0 0 0 0 127 0" result="hardAlpha"/>
<feOffset dx="-0.25" dy="0.25"/>
<feGaussianBlur stdDeviation="0.375"/>
<feComposite in2="hardAlpha" operator="arithmetic" k2="-1" k3="1"/>
<feColorMatrix type="matrix" values="0 0 0 0 0.905882 0 0 0 0 0.439216 0 0 0 0 0.278431 0 0 0 1 0"/>
<feBlend mode="normal" in2="shape" result="effect1_innerShadow_354_108"/>
<feColorMatrix in="SourceAlpha" type="matrix" values="0 0 0 0 0 0 0 0 0 0 0 0 0 0 0 0 0 0 127 0" result="hardAlpha"/>
<feOffset dx="0.3" dy="0.3"/>
<feGaussianBlur stdDeviation="0.3"/>
<feComposite in2="hardAlpha" operator="arithmetic" k2="-1" k3="1"/>
<feColorMatrix type="matrix" values="0 0 0 0 0.796078 0 0 0 0 0.141176 0 0 0 0 0.223529 0 0 0 1 0"/>
<feBlend mode="normal" in2="effect1_innerShadow_354_108" result="effect2_innerShadow_354_108"/>
</filter>
<filter id="filter3_i_354_108" x="13.46" y="2.59351" width="1.91113" height="1.8385" filterUnits="userSpaceOnUse" color-interpolation-filters="sRGB">
<feFlood flood-opacity="0" result="BackgroundImageFix"/>
<feBlend mode="normal" in="SourceGraphic" in2="BackgroundImageFix" result="shape"/>
<feColorMatrix in="SourceAlpha" type="matrix" values="0 0 0 0 0 0 0 0 0 0 0 0 0 0 0 0 0 0 127 0" result="hardAlpha"/>
<feOffset/>
<feGaussianBlur stdDeviation="0.125"/>
<feComposite in2="hardAlpha" operator="arithmetic" k2="-1" k3="1"/>
<feColorMatrix type="matrix" values="0 0 0 0 0.756863 0 0 0 0 0.619608 0 0 0 0 0.321569 0 0 0 1 0"/>
<feBlend mode="normal" in2="shape" result="effect1_innerShadow_354_108"/>
</filter>
<filter id="filter4_ii_354_108" x="7.8291" y="8.90234" width="4.64355" height="4.64355" filterUnits="userSpaceOnUse" color-interpolation-filters="sRGB">
<feFlood flood-opacity="0" result="BackgroundImageFix"/>
<feBlend mode="normal" in="SourceGraphic" in2="BackgroundImageFix" result="shape"/>
<feColorMatrix in="SourceAlpha" type="matrix" values="0 0 0 0 0 0 0 0 0 0 0 0 0 0 0 0 0 0 127 0" result="hardAlpha"/>
<feOffset dx="-0.5" dy="0.5"/>
<feGaussianBlur stdDeviation="0.625"/>
<feComposite in2="hardAlpha" operator="arithmetic" k2="-1" k3="1"/>
<feColorMatrix type="matrix" values="0 0 0 0 0.937255 0 0 0 0 0.443137 0 0 0 0 0.376471 0 0 0 1 0"/>
<feBlend mode="normal" in2="shape" result="effect1_innerShadow_354_108"/>
<feColorMatrix in="SourceAlpha" type="matrix" values="0 0 0 0 0 0 0 0 0 0 0 0 0 0 0 0 0 0 127 0" result="hardAlpha"/>
<feOffset dx="0.75" dy="-0.75"/>
<feGaussianBlur stdDeviation="0.75"/>
<feComposite in2="hardAlpha" operator="arithmetic" k2="-1" k3="1"/>
<feColorMatrix type="matrix" values="0 0 0 0 0.313726 0 0 0 0 0.384314 0 0 0 0 1 0 0 0 1 0"/>
<feBlend mode="normal" in2="effect1_innerShadow_354_108" result="effect2_innerShadow_354_108"/>
</filter>
<filter id="filter5_f_354_108" x="9.98574" y="2.20486" width="7.99922" height="5.02021" filterUnits="userSpaceOnUse" color-interpolation-filters="sRGB">
<feFlood flood-opacity="0" result="BackgroundImageFix"/>
<feBlend mode="normal" in="SourceGraphic" in2="BackgroundImageFix" result="shape"/>
<feGaussianBlur stdDeviation="0.075" result="effect1_foregroundBlur_354_108"/>
</filter>
<radialGradient id="paint0_radial_354_108" cx="0" cy="0" r="1" gradientUnits="userSpaceOnUse" gradientTransform="translate(2.69788 11.9823) rotate(-103.54) scale(1.20438 1.48273)">
<stop stop-color="#395DE0"/>
<stop offset="1" stop-color="#2C68A3"/>
</radialGradient>
<radialGradient id="paint1_radial_354_108" cx="0" cy="0" r="1" gradientUnits="userSpaceOnUse" gradientTransform="translate(17.9699 10.4253) rotate(108.743) scale(2.05605)">
<stop offset="0.249" stop-color="#3DB3F3"/>
<stop offset="1" stop-color="#5B73F4"/>
</radialGradient>
<radialGradient id="paint2_radial_354_108" cx="0" cy="0" r="1" gradientUnits="userSpaceOnUse" gradientTransform="translate(18.3125 10.8871) rotate(161.162) scale(0.964768 0.61168)">
<stop offset="0.258" stop-color="#5FBEFF"/>
<stop offset="1" stop-color="#5FBEFF" stop-opacity="0"/>
</radialGradient>
<radialGradient id="paint3_radial_354_108" cx="0" cy="0" r="1" gradientUnits="userSpaceOnUse" gradientTransform="translate(4.95073 5.32247) rotate(15.9454) scale(2.18972 5.46545)">
<stop stop-color="#FBC96E"/>
<stop offset="1" stop-color="#FAC567"/>
</radialGradient>
<radialGradient id="paint4_radial_354_108" cx="0" cy="0" r="1" gradientUnits="userSpaceOnUse" gradientTransform="translate(6.23979 5.79479) rotate(-156.753) scale(1.66019 4.99309)">
<stop offset="0.765" stop-color="#D89F3A" stop-opacity="0"/>
<stop offset="0.911" stop-color="#DAA139"/>
</radialGradient>
<radialGradient id="paint5_radial_354_108" cx="0" cy="0" r="1" gradientUnits="userSpaceOnUse" gradientTransform="translate(15.4138 6.65373) rotate(-125.455) scale(1.74076 1.78532)">
<stop offset="0.254" stop-color="#BF812A"/>
<stop offset="1" stop-color="#CE9333"/>
</radialGradient>
<radialGradient id="paint6_radial_354_108" cx="0" cy="0" r="1" gradientUnits="userSpaceOnUse" gradientTransform="translate(14.071 5.8051) rotate(-23.0909) scale(1.50644 3.9245)">
<stop offset="0.734" stop-color="#E9BB61" stop-opacity="0"/>
<stop offset="0.929" stop-color="#E9BB61"/>
</radialGradient>
<radialGradient id="paint7_radial_354_108" cx="0" cy="0" r="1" gradientUnits="userSpaceOnUse" gradientTransform="translate(14.9632 6.23463) rotate(-142.922) scale(2.36974 3.99786)">
<stop offset="0.773" stop-color="#C18739" stop-opacity="0"/>
<stop offset="0.948" stop-color="#C18739"/>
</radialGradient>
<linearGradient id="paint8_linear_354_108" x1="14.9538" y1="10.1486" x2="2.80846" y2="12.9811" gradientUnits="userSpaceOnUse">
<stop stop-color="#FFBC5D"/>
<stop offset="0.304" stop-color="#FCAD6A"/>
<stop offset="1" stop-color="#CB7547"/>
</linearGradient>
<radialGradient id="paint9_radial_354_108" cx="0" cy="0" r="1" gradientUnits="userSpaceOnUse" gradientTransform="translate(7.34115 17.903) rotate(-69.4212) scale(7.56429 14.7225)">
<stop stop-color="#F67B4E"/>
<stop offset="1" stop-color="#F67B4E" stop-opacity="0"/>
</radialGradient>
<linearGradient id="paint10_linear_354_108" x1="2.6304" y1="12.691" x2="4.49971" y2="12.3046" gradientUnits="userSpaceOnUse">
<stop stop-color="#C2794C"/>
<stop offset="1" stop-color="#E07648" stop-opacity="0"/>
</linearGradient>
<linearGradient id="paint11_linear_354_108" x1="17.3044" y1="13.8941" x2="14.1247" y2="13.164" gradientUnits="userSpaceOnUse">
<stop offset="0.129" stop-color="#FFBB5B"/>
<stop offset="1" stop-color="#FFBB5B" stop-opacity="0"/>
</linearGradient>
<linearGradient id="paint12_linear_354_108" x1="10.9883" y1="15.8494" x2="10.9883" y2="15.0326" gradientUnits="userSpaceOnUse">
<stop offset="0.184" stop-color="#FF6F8C"/>
<stop offset="1" stop-color="#FF7A6A" stop-opacity="0"/>
</linearGradient>
<radialGradient id="paint13_radial_354_108" cx="0" cy="0" r="1" gradientUnits="userSpaceOnUse" gradientTransform="translate(18.293 4.52696) rotate(113.385) scale(1.73212 1.43579)">
<stop offset="0.377" stop-color="#DD9049"/>
<stop offset="1" stop-color="#F8BF60" stop-opacity="0"/>
</radialGradient>
<radialGradient id="paint14_radial_354_108" cx="0" cy="0" r="1" gradientUnits="userSpaceOnUse" gradientTransform="translate(1.78202 4.6239) rotate(64.2172) scale(1.40772 0.769984)">
<stop offset="0.196" stop-color="#D7783D"/>
<stop offset="1" stop-color="#D7783D" stop-opacity="0"/>
</radialGradient>
<radialGradient id="paint15_radial_354_108" cx="0" cy="0" r="1" gradientUnits="userSpaceOnUse" gradientTransform="translate(9.99971 2.07259) rotate(76.0566) scale(0.802445 1.75726)">
<stop offset="0.382" stop-color="#D48C33"/>
<stop offset="1" stop-color="#FEB16A" stop-opacity="0"/>
</radialGradient>
<radialGradient id="paint16_radial_354_108" cx="0" cy="0" r="1" gradientUnits="userSpaceOnUse" gradientTransform="translate(14.1457 11.8537) rotate(-51.5819) scale(1.59042 1.02624)">
<stop stop-color="#FF196C"/>
<stop offset="1" stop-color="#FF1F4A"/>
</radialGradient>
<radialGradient id="paint17_radial_354_108" cx="0" cy="0" r="1" gradientUnits="userSpaceOnUse" gradientTransform="translate(15.2416 11.0149) rotate(149.744) scale(1.19389 0.756225)">
<stop offset="0.223" stop-color="#FF5873"/>
<stop offset="1" stop-color="#FF5873" stop-opacity="0"/>
</radialGradient>
<radialGradient id="paint18_radial_354_108" cx="0" cy="0" r="1" gradientUnits="userSpaceOnUse" gradientTransform="translate(5.74603 11.8961) rotate(-104.281) scale(1.21932 1.16746)">
<stop stop-color="#F6196C"/>
<stop offset="1" stop-color="#E42047"/>
</radialGradient>
<radialGradient id="paint19_radial_354_108" cx="0" cy="0" r="1" gradientUnits="userSpaceOnUse" gradientTransform="translate(6.251 11.1552) rotate(155.726) scale(0.600989 0.526416)">
<stop stop-color="#FE536F"/>
<stop offset="1" stop-color="#FE536F" stop-opacity="0"/>
</radialGradient>
<radialGradient id="paint20_radial_354_108" cx="0" cy="0" r="1" gradientUnits="userSpaceOnUse" gradientTransform="translate(2.20058 3.54525) rotate(135.198) scale(2.04385 2.12635)">
<stop offset="0.172" stop-color="#E7C04E"/>
<stop offset="1" stop-color="#D9972A"/>
</radialGradient>
<radialGradient id="paint21_radial_354_108" cx="0" cy="0" r="1" gradientUnits="userSpaceOnUse" gradientTransform="translate(1.21268 5.27929) rotate(-71.331) scale(1.14097 1.23593)">
<stop offset="0.065" stop-color="#DF8089"/>
<stop offset="1" stop-color="#DF8089" stop-opacity="0"/>
</radialGradient>
<radialGradient id="paint22_radial_354_108" cx="0" cy="0" r="1" gradientUnits="userSpaceOnUse" gradientTransform="translate(2.27705 3.5893) rotate(141.017) scale(0.967353 0.499901)">
<stop stop-color="#FFDE71"/>
<stop offset="1" stop-color="#FFDE71" stop-opacity="0"/>
</radialGradient>
<radialGradient id="paint23_radial_354_108" cx="0" cy="0" r="1" gradientUnits="userSpaceOnUse" gradientTransform="translate(1.76074 4.25961) rotate(180) scale(1.28906 1.33975)">
<stop offset="0.488" stop-color="#E1AD3D" stop-opacity="0"/>
<stop offset="1" stop-color="#B9894B"/>
</radialGradient>
<radialGradient id="paint24_radial_354_108" cx="0" cy="0" r="1" gradientUnits="userSpaceOnUse" gradientTransform="translate(6.35815 2.88362) rotate(136.302) scale(2.00583 2.08469)">
<stop offset="0.172" stop-color="#E7C04E"/>
<stop offset="1" stop-color="#D9972A"/>
</radialGradient>
<radialGradient id="paint25_radial_354_108" cx="0" cy="0" r="1" gradientUnits="userSpaceOnUse" gradientTransform="translate(6.4333 2.92651) rotate(142.093) scale(0.953042 0.488219)">
<stop stop-color="#FFDE71"/>
<stop offset="1" stop-color="#FFDE71" stop-opacity="0"/>
</radialGradient>
<radialGradient id="paint26_radial_354_108" cx="0" cy="0" r="1" gradientUnits="userSpaceOnUse" gradientTransform="translate(5.58493 4.54832) rotate(-76.7987) scale(0.893739 1.19199)">
<stop stop-color="#E4A122"/>
<stop offset="1" stop-color="#E4A122" stop-opacity="0"/>
</radialGradient>
<radialGradient id="paint27_radial_354_108" cx="0" cy="0" r="1" gradientUnits="userSpaceOnUse" gradientTransform="translate(5.91768 3.5707) rotate(180) scale(1.28906)">
<stop offset="0.488" stop-color="#E1AD3D" stop-opacity="0"/>
<stop offset="1" stop-color="#B9894B"/>
</radialGradient>
<radialGradient id="paint28_radial_354_108" cx="0" cy="0" r="1" gradientUnits="userSpaceOnUse" gradientTransform="translate(15.1348 3.19546) rotate(136.32) scale(1.64874 1.71357)">
<stop offset="0.172" stop-color="#F0C950"/>
<stop offset="1" stop-color="#C8861F"/>
</radialGradient>
<radialGradient id="paint29_radial_354_108" cx="0" cy="0" r="1" gradientUnits="userSpaceOnUse" gradientTransform="translate(15.2746 3.01245) rotate(147.14) scale(0.920759 0.471677)">
<stop offset="0.184" stop-color="#FFDE71"/>
<stop offset="1" stop-color="#FFDE71" stop-opacity="0"/>
</radialGradient>
<radialGradient id="paint30_radial_354_108" cx="0" cy="0" r="1" gradientUnits="userSpaceOnUse" gradientTransform="translate(10.7727 10.8219) rotate(138.155) scale(1.93228)">
<stop stop-color="#5FBFFF"/>
<stop offset="1" stop-color="#3E94FF"/>
</radialGradient>
<linearGradient id="paint31_linear_354_108" x1="10.1452" y1="2.29268" x2="14.5067" y2="7.79268" gradientUnits="userSpaceOnUse">
<stop stop-color="#FFD678"/>
<stop offset="1" stop-color="#FFD678" stop-opacity="0"/>
</linearGradient>
<radialGradient id="paint32_radial_354_108" cx="0" cy="0" r="1" gradientUnits="userSpaceOnUse" gradientTransform="translate(14.5067 7.25574) rotate(-34.6679) scale(4.46686 1.1964)">
<stop offset="0.289" stop-color="#FFD175"/>
<stop offset="1" stop-color="#FFD175" stop-opacity="0"/>
</radialGradient>
<radialGradient id="paint33_radial_354_108" cx="0" cy="0" r="1" gradientUnits="userSpaceOnUse" gradientTransform="translate(10.9888 0.573812) rotate(125.606) scale(2.36171 2.00514)">
<stop offset="0.376" stop-color="#F3D154"/>
<stop offset="1" stop-color="#CC9848"/>
</radialGradient>
<radialGradient id="paint34_radial_354_108" cx="0" cy="0" r="1" gradientUnits="userSpaceOnUse" gradientTransform="translate(9.76323 2.49408) rotate(-79.3129) scale(1.25989 1.49765)">
<stop stop-color="#E78F5E"/>
<stop offset="1" stop-color="#E78F5E" stop-opacity="0"/>
</radialGradient>
<radialGradient id="paint35_radial_354_108" cx="0" cy="0" r="1" gradientUnits="userSpaceOnUse" gradientTransform="translate(10.5154 1.66976) rotate(-146.725) scale(2.46697 2.95061)">
<stop offset="0.557" stop-color="#E9C251" stop-opacity="0"/>
<stop offset="1" stop-color="#B49858"/>
</radialGradient>
<radialGradient id="paint36_radial_354_108" cx="0" cy="0" r="1" gradientUnits="userSpaceOnUse" gradientTransform="translate(11.418 0.70245) rotate(156.06) scale(1.36338 1.04918)">
<stop stop-color="#FFED77"/>
<stop offset="1" stop-color="#FFED77" stop-opacity="0"/>
</radialGradient>
<radialGradient id="paint37_radial_354_108" cx="0" cy="0" r="1" gradientUnits="userSpaceOnUse" gradientTransform="translate(19.3884 3.54598) rotate(135.198) scale(2.04385 2.12635)">
<stop offset="0.172" stop-color="#F8CB54"/>
<stop offset="1" stop-color="#EAA34B"/>
</radialGradient>
<radialGradient id="paint38_radial_354_108" cx="0" cy="0" r="1" gradientUnits="userSpaceOnUse" gradientTransform="translate(18.4003 5.27917) rotate(-71.3304) scale(1.14097 1.54224)">
<stop offset="0.16" stop-color="#F1907C"/>
<stop offset="1" stop-color="#F1907C" stop-opacity="0"/>
</radialGradient>
<radialGradient id="paint39_radial_354_108" cx="0" cy="0" r="1" gradientUnits="userSpaceOnUse" gradientTransform="translate(19.4652 3.58999) rotate(141.017) scale(0.967353 0.499901)">
<stop stop-color="#FFDE71"/>
<stop offset="1" stop-color="#FFDE71" stop-opacity="0"/>
</radialGradient>
<radialGradient id="paint40_radial_354_108" cx="0" cy="0" r="1" gradientUnits="userSpaceOnUse" gradientTransform="translate(18.9482 4.25961) rotate(180) scale(1.28906 1.33975)">
<stop offset="0.488" stop-color="#E0A444" stop-opacity="0"/>
<stop offset="1" stop-color="#C6924D"/>
</radialGradient>
</defs>
</svg>
