<svg width="23" height="24" viewBox="0 0 23 24" fill="none" xmlns="http://www.w3.org/2000/svg">
<path d="M8.5 20.1667C3.48333 21.8 3.48333 17.25 1.5 16.6667M15.5 22.5V18.4167C15.5 17.25 15.6167 16.7833 14.9167 16.0833C18.1833 15.7333 21.3333 14.45 21.3333 9.08334C21.3319 7.68913 20.788 6.3502 19.8167 5.35C20.2722 4.13896 20.2303 2.7969 19.7 1.61667C19.7 1.61667 18.4167 1.26667 15.6167 3.13334C13.2451 2.51569 10.7549 2.51569 8.38333 3.13334C5.58333 1.26667 4.3 1.61667 4.3 1.61667C3.76973 2.7969 3.72779 4.13896 4.18333 5.35C3.21203 6.3502 2.66809 7.68913 2.66667 9.08334C2.66667 14.45 5.81667 15.7333 9.08333 16.0833C8.38333 16.7833 8.38333 17.4833 8.5 18.4167V22.5" stroke="black" stroke-width="2.2" stroke-linecap="round" stroke-linejoin="round"/>
</svg>
