<svg width="38" height="48" viewBox="0 0 38 48" fill="none" xmlns="http://www.w3.org/2000/svg">
<path d="M19 46.9677C14.18 46.9677 9.55744 45.0238 6.14913 41.5634C2.74086 38.103 0.826111 33.4098 0.826111 28.5161C0.826111 20.4389 6.98252 13.9785 12.3961 8.05788L19 0.838684L25.6039 8.05788C31.0175 13.9808 37.1739 20.4412 37.1739 28.5161C37.1739 33.4098 35.2592 38.103 31.851 41.5634C28.4426 45.0238 23.8201 46.9677 19 46.9677Z" fill="#015F6B"/>
<path d="M19 39.4193C15.7137 39.4193 12.5618 38.1115 10.238 35.7837C7.91421 33.4558 6.6087 30.2985 6.6087 27.0064C6.6087 21.5727 10.8063 17.2267 14.4973 13.2436L19 8.38708L23.5027 13.2436C27.1937 17.2282 31.3913 21.5743 31.3913 27.0064C31.3913 30.2985 30.0858 33.4558 27.762 35.7837C25.4382 38.1115 22.2863 39.4193 19 39.4193Z" fill="#00B4CB"/>
</svg>
