<svg width="24" height="25" viewBox="0 0 24 25" fill="none" xmlns="http://www.w3.org/2000/svg">
<path d="M22.75 20.6234V12.4877C22.75 11.8321 22.6166 11.1834 22.358 10.581C22.0994 9.97856 21.7209 9.43505 21.2456 8.98352L13.5401 1.66465C13.0909 1.23797 12.4951 1.00006 11.8756 1.00006C11.2561 1.00006 10.6603 1.23797 10.2111 1.66465L2.50437 8.98352C2.02908 9.43505 1.65061 9.97856 1.39199 10.581C1.13337 11.1834 0.999999 11.8321 1 12.4877V20.6234C1 21.2643 1.25461 21.879 1.70783 22.3322C2.16104 22.7855 2.77573 23.0401 3.41667 23.0401H20.3333C20.9743 23.0401 21.589 22.7855 22.0422 22.3322C22.4954 21.879 22.75 21.2643 22.75 20.6234Z" stroke="black" stroke-width="2" stroke-linecap="round" stroke-linejoin="round"/>
<path d="M8.25 15.7901C8.25 15.1491 8.50461 14.5345 8.95783 14.0812C9.41104 13.628 10.0257 13.3734 10.6667 13.3734H13.0833C13.7243 13.3734 14.339 13.628 14.7922 14.0812C15.2454 14.5345 15.5 15.1491 15.5 15.7901V23.0401H8.25V15.7901Z" stroke="black" stroke-width="2" stroke-linecap="round" stroke-linejoin="round"/>
</svg>
