<svg width="18" height="18" viewBox="0 0 18 18" fill="none" xmlns="http://www.w3.org/2000/svg">
<g clip-path="url(#clip0_312_92)">
<path d="M11 14.0135V12.5785C11.0188 12.3401 10.9866 12.1004 10.9055 11.8754C10.8245 11.6504 10.6965 11.4452 10.53 11.2735C12.1 11.0985 13.75 10.5035 13.75 7.77352C13.7499 7.07543 13.4814 6.40412 13 5.89852C13.228 5.28777 13.2119 4.61269 12.955 4.01352C12.955 4.01352 12.365 3.83852 11 4.75352C9.85404 4.44293 8.64603 4.44293 7.50004 4.75352C6.13504 3.83852 5.54504 4.01352 5.54504 4.01352C5.28823 4.61269 5.27211 5.28777 5.50004 5.89852C5.0151 6.40787 4.7463 7.08525 4.75004 7.78852C4.75004 10.4985 6.40004 11.0935 7.97004 11.2885C7.80554 11.4585 7.67867 11.6612 7.59769 11.8835C7.51672 12.1057 7.48344 12.3426 7.50004 12.5785V14.0135" stroke="black" stroke-opacity="0.7" stroke-linecap="round" stroke-linejoin="round"/>
<path d="M7.5 13.0135C6 13.5 4.75 13.0135 4 11.5135" stroke="black" stroke-opacity="0.7" stroke-linecap="round" stroke-linejoin="round"/>
</g>
<circle cx="9" cy="9" r="8.5" stroke="black" stroke-opacity="0.7"/>
<defs>
<clipPath id="clip0_312_92">
<rect width="12" height="12" fill="white" transform="translate(3 3)"/>
</clipPath>
</defs>
</svg>
