<svg width="24" height="24" viewBox="0 0 24 24" fill="none" xmlns="http://www.w3.org/2000/svg">
<path d="M5.04 19.2H7.44C7.572 19.2 7.68 19.092 7.68 18.96V5.04C7.68 4.908 7.572 4.8 7.44 4.8H5.04C4.908 4.8 4.8 4.908 4.8 5.04V18.96C4.8 19.092 4.908 19.2 5.04 19.2ZM10.8 10.8H13.2C13.332 10.8 13.44 10.692 13.44 10.56V5.04C13.44 4.908 13.332 4.8 13.2 4.8H10.8C10.668 4.8 10.56 4.908 10.56 5.04V10.56C10.56 10.692 10.668 10.8 10.8 10.8ZM16.56 12.96H18.96C19.092 12.96 19.2 12.852 19.2 12.72V5.04C19.2 4.908 19.092 4.8 18.96 4.8H16.56C16.428 4.8 16.32 4.908 16.32 5.04V12.72C16.32 12.852 16.428 12.96 16.56 12.96ZM23.04 0H0.96C0.429 0 0 0.429 0 0.96V23.04C0 23.571 0.429 24 0.96 24H23.04C23.571 24 24 23.571 24 23.04V0.96C24 0.429 23.571 0 23.04 0ZM21.84 21.84H2.16V2.16H21.84V21.84Z" fill="black"/>
</svg>
