<svg width="14" height="21" viewBox="0 0 14 21" fill="none" xmlns="http://www.w3.org/2000/svg">
<path d="M6.942 0.733999C8.79667 0.733999 10.2787 1.21933 11.388 2.19C12.5147 3.16067 13.078 4.53 13.078 6.298C13.078 7.92733 12.5407 9.20133 11.466 10.12C10.4087 11.0213 9.00467 11.4807 7.254 11.498L7.124 13.448H3.224L3.094 8.612H4.654C5.98867 8.612 7.00267 8.44733 7.696 8.118C8.40667 7.78867 8.762 7.19067 8.762 6.324C8.762 5.71733 8.59733 5.24067 8.268 4.894C7.93867 4.54733 7.47933 4.374 6.89 4.374C6.266 4.374 5.78067 4.556 5.434 4.92C5.08733 5.26667 4.914 5.74333 4.914 6.35H0.728C0.693333 5.29267 0.91 4.33933 1.378 3.49C1.86333 2.64067 2.574 1.97333 3.51 1.488C4.46333 0.985332 5.60733 0.733999 6.942 0.733999ZM5.226 20.208C4.446 20.208 3.80467 19.9827 3.302 19.532C2.81667 19.064 2.574 18.492 2.574 17.816C2.574 17.1227 2.81667 16.542 3.302 16.074C3.80467 15.606 4.446 15.372 5.226 15.372C5.98867 15.372 6.61267 15.606 7.098 16.074C7.60067 16.542 7.852 17.1227 7.852 17.816C7.852 18.492 7.60067 19.064 7.098 19.532C6.61267 19.9827 5.98867 20.208 5.226 20.208Z" fill="black"/>
</svg>
