<svg width="20" height="22" viewBox="0 0 20 22" fill="none" xmlns="http://www.w3.org/2000/svg">
<path d="M9.73438 11C12.4958 11 14.7344 8.76142 14.7344 6C14.7344 3.23858 12.4958 1 9.73438 1C6.97295 1 4.73438 3.23858 4.73438 6C4.73438 8.76142 6.97295 11 9.73438 11Z" stroke="black" stroke-width="2"/>
<path d="M14.7344 13H15.0864C15.8175 13.0002 16.5233 13.2674 17.0713 13.7513C17.6193 14.2352 17.9717 14.9026 18.0624 15.628L18.4534 18.752C18.4885 19.0334 18.4635 19.3191 18.3798 19.5901C18.2961 19.8611 18.1557 20.1112 17.968 20.3238C17.7803 20.5364 17.5495 20.7066 17.2909 20.8232C17.0324 20.9398 16.752 21.0001 16.4684 21H3.00037C2.71676 21.0001 2.43637 20.9398 2.17782 20.8232C1.91927 20.7066 1.68848 20.5364 1.50075 20.3238C1.31302 20.1112 1.17266 19.8611 1.08898 19.5901C1.0053 19.3191 0.980206 19.0334 1.01537 18.752L1.40537 15.628C1.49607 14.9022 1.84879 14.2346 2.39721 13.7506C2.94562 13.2667 3.65195 12.9997 4.38337 13H4.73437" stroke="black" stroke-width="2" stroke-linecap="round" stroke-linejoin="round"/>
</svg>
