<svg width="13" height="23" viewBox="0 0 13 23" fill="none" xmlns="http://www.w3.org/2000/svg">
<path d="M0.497118 22.4937C0.178813 22.1695 -1.32303e-07 21.7297 -1.72386e-07 21.2712C-2.1247e-07 20.8127 0.178813 20.373 0.497118 20.0487L8.90166 11.4896L0.497116 2.93038C0.187833 2.60426 0.0166945 2.16747 0.0205629 1.7141C0.0244314 1.26073 0.202997 0.827045 0.517799 0.50645C0.832601 0.185856 1.25845 0.00400593 1.70363 6.62153e-05C2.14881 -0.0038735 2.5777 0.170413 2.89793 0.485388L12.5029 10.2671C12.8212 10.5913 13 11.0311 13 11.4896C13 11.9481 12.8212 12.3878 12.5029 12.7121L2.89793 22.4937C2.57953 22.8179 2.14774 23 1.69752 23C1.24731 23 0.815519 22.8179 0.497118 22.4937Z" fill="#343839"/>
</svg>
